<svg width="500" height="373" viewBox="0 0 500 373" fill="none" xmlns="http://www.w3.org/2000/svg">
<g clip-path="url(#clip0_174_200)">
<path d="M500 327.4H0V327.7H500V327.4Z" fill="#EBEBEB"/>
<path d="M433.8 338H400.7V338.3H433.8V338Z" fill="#EBEBEB"/>
<path d="M313.1 337.9H304.4V338.2H313.1V337.9Z" fill="#EBEBEB"/>
<path d="M449.9 343.5H430.7V343.8H449.9V343.5Z" fill="#EBEBEB"/>
<path d="M114.6 346.8H71.4004V347.1H114.6V346.8Z" fill="#EBEBEB"/>
<path d="M110.9 335.9H104.6V336.2H110.9V335.9Z" fill="#EBEBEB"/>
<path d="M248.5 337H187.6V337.3H248.5V337Z" fill="#EBEBEB"/>
<path d="M237 282.8H43.9002C40.8002 282.8 38.2002 280.2 38.2002 277.1V5.7C38.2002 2.6 40.8002 0 43.9002 0H237C240.2 0 242.7 2.6 242.7 5.7V277.1C242.7 280.2 240.2 282.8 237 282.8ZM43.9002 0.2C40.9002 0.2 38.4002 2.6 38.4002 5.7V277.1C38.4002 280.1 40.8002 282.6 43.9002 282.6H237C240 282.6 242.5 280.2 242.5 277.1V5.7C242.5 2.7 240.1 0.2 237 0.2H43.9002Z" fill="#EBEBEB"/>
<path d="M453.3 282.8H260.2C257 282.8 254.5 280.2 254.5 277.1V5.7C254.5 2.6 257.1 0 260.2 0H453.3C456.4 0 459 2.5 459 5.7V277.1C459 280.2 456.5 282.8 453.3 282.8ZM260.2 0.2C257.2 0.2 254.7 2.6 254.7 5.7V277.1C254.7 280.1 257.1 282.6 260.2 282.6H453.3C456.3 282.6 458.8 280.2 458.8 277.1V5.7C458.8 2.7 456.4 0.2 453.3 0.2H260.2Z" fill="#EBEBEB"/>
<path d="M428.9 41.3H71.0996V190.2H428.9V41.3Z" fill="#F0F0F0"/>
<path d="M421.9 48.3H78.0996V183.2H421.9V48.3Z" fill="#FAFAFA"/>
<path d="M123.4 183.2L158.6 48.3H184.6L149.4 183.2H123.4Z" fill="white"/>
<path d="M155.4 183.2L190.6 48.3H202.3L167 183.2H155.4Z" fill="white"/>
<path d="M212.3 183.2L247.5 48.3H273.5L238.3 183.2H212.3Z" fill="white"/>
<path d="M277.8 183.2L313.1 48.3H324.7L289.5 183.2H277.8Z" fill="white"/>
<path d="M170.2 48.3H168.4V183.2H170.2V48.3Z" fill="#E0E0E0"/>
<path d="M79.8996 48.3H78.0996V183.2H79.8996V48.3Z" fill="#E0E0E0"/>
<path d="M168.4 48.3H161.4V183.2H168.4V48.3Z" fill="#F0F0F0"/>
<path d="M257 48.3H255.2V183.2H257V48.3Z" fill="#E0E0E0"/>
<path d="M255.2 48.3H248.2V183.2H255.2V48.3Z" fill="#F0F0F0"/>
<path d="M343.8 48.3H342V183.2H343.8V48.3Z" fill="#E0E0E0"/>
<path d="M342 48.3H335V183.2H342V48.3Z" fill="#F0F0F0"/>
<path d="M430.7 41.3H428.9V190.2H430.7V41.3Z" fill="#E0E0E0"/>
<path d="M434.7 31.1H65.2998C64.3998 31.1 63.7998 30.4 63.7998 29.5C63.7998 28.6 64.4998 27.9 65.2998 27.9H434.6C435.5 27.9 436.2 28.6 436.1 29.5C436.2 30.4 435.5 31.1 434.7 31.1Z" fill="#E0E0E0"/>
<g opacity="0.6">
<path d="M142.4 25H66.7998V296.7H142.4V25Z" fill="#F5F5F5"/>
<path d="M107.699 298.9H101.399L103.199 27.2H105.999L107.699 298.9Z" fill="#E6E6E6"/>
<path d="M86.8002 298.9H83.7002L84.6002 27.2H85.9002L86.8002 298.9Z" fill="#E6E6E6"/>
<path d="M128.8 298.9H125.7L126.6 27.2H127.9L128.8 298.9Z" fill="#E6E6E6"/>
</g>
<g opacity="0.6">
<path d="M432.4 25H356.8V296.7H432.4V25Z" fill="#F5F5F5"/>
<path d="M386.4 298.9H380L381.8 27.2H384.6L386.4 298.9Z" fill="#E6E6E6"/>
<path d="M372.399 298.9H369.399L370.199 27.2H371.599L372.399 298.9Z" fill="#E6E6E6"/>
<path d="M404.7 298.9H401.7L402.5 27.2H403.9L404.7 298.9Z" fill="#E6E6E6"/>
<path d="M420.3 298.9H417.2L418.1 27.2H419.5L420.3 298.9Z" fill="#E6E6E6"/>
</g>
<path d="M339.4 244.3H325.2V325.7H339.4V244.3Z" fill="#E6E6E6"/>
<path d="M330.7 244.3H160.6V325.7H330.7V244.3Z" fill="#F0F0F0"/>
<path d="M326.9 325.7H321.7H167.9V327.4H321.7H326.9H332.1V325.7H326.9Z" fill="#E0E0E0"/>
<path opacity="0.5" d="M325.8 249.4H165.4V282.2H325.8V249.4Z" fill="#FAFAFA"/>
<path opacity="0.5" d="M325.8 287.6H165.4V320.4H325.8V287.6Z" fill="#FAFAFA"/>
<path d="M189.8 265.8C189.8 267.8 188.2 269.4 186.2 269.4C184.2 269.4 182.6 267.8 182.6 265.8C182.6 263.8 184.2 262.2 186.2 262.2C188.1 262.2 189.7 263.8 189.8 265.8Z" fill="#E0E0E0"/>
<path d="M308.7 265.8C308.7 267.8 307.1 269.4 305.1 269.4C303.1 269.4 301.5 267.8 301.5 265.8C301.5 263.8 303.1 262.2 305.1 262.2C307.1 262.2 308.7 263.8 308.7 265.8Z" fill="#E0E0E0"/>
<path d="M186.1 307.6C188.088 307.6 189.7 305.988 189.7 304C189.7 302.012 188.088 300.4 186.1 300.4C184.112 300.4 182.5 302.012 182.5 304C182.5 305.988 184.112 307.6 186.1 307.6Z" fill="#E0E0E0"/>
<path d="M308.7 304C308.7 306 307.1 307.6 305.1 307.6C303.1 307.6 301.5 306 301.5 304C301.5 302 303.1 300.4 305.1 300.4C307.1 300.4 308.7 302 308.7 304Z" fill="#E0E0E0"/>
<path d="M249.2 265.8C249.2 267.8 247.6 269.4 245.6 269.4C243.6 269.4 242 267.8 242 265.8C242 263.8 243.6 262.2 245.6 262.2C247.6 262.2 249.2 263.8 249.2 265.8Z" fill="#E0E0E0"/>
<path d="M245.6 307.6C247.588 307.6 249.2 305.988 249.2 304C249.2 302.012 247.588 300.4 245.6 300.4C243.612 300.4 242 302.012 242 304C242 305.988 243.612 307.6 245.6 307.6Z" fill="#E0E0E0"/>
<path d="M320.2 230.5C320.2 238.1 314 244.3 306.4 244.3C298.8 244.3 292.6 238.1 292.6 230.5H320.2Z" fill="#F0F0F0"/>
<path d="M210.9 228C210.9 237 203.6 244.3 194.6 244.3C185.6 244.3 178.3 237 178.3 228H210.9Z" fill="#F0F0F0"/>
<path d="M280.9 234.7C280.9 240 276.6 244.3 271.3 244.3C266 244.3 261.7 240 261.7 234.7H280.9Z" fill="#F0F0F0"/>
<path d="M250 372.5C357.088 372.5 443.9 367.441 443.9 361.2C443.9 354.959 357.088 349.9 250 349.9C142.912 349.9 56.0996 354.959 56.0996 361.2C56.0996 367.441 142.912 372.5 250 372.5Z" fill="#F5F5F5"/>
<path d="M348.101 60.4C346.001 58.3 341.901 50.2 345.801 46.4C349.701 42.6 353.201 46.1 353.501 47.9C353.801 49.7 353.101 65.3 348.101 60.4Z" fill="#263238"/>
<path d="M347.3 350.6L338.3 350.7L335.9 330.1L344.8 330L347.3 350.6Z" fill="#FF8B7B"/>
<path d="M338.3 349.7L348 349.6C348.4 349.6 348.7 349.8 348.8 350.2L351.2 358.1C351.4 358.7 351.1 359.4 350.4 359.6C350.3 359.6 350.1 359.7 350 359.7C346.5 359.7 341.4 359.5 337 359.6C331.8 359.6 329.5 360 323.5 360C319.8 360 318.5 356.3 320 356C326.9 354.4 330.4 354.2 336.2 350.4C336.8 350 337.6 349.7 338.3 349.7Z" fill="#263238"/>
<path opacity="0.2" d="M335.9 330.1L337.1 340.7H346.1L344.8 330L335.9 330.1Z" fill="black"/>
<path d="M334.601 351.3C335.601 351.3 336.501 351.2 337.501 350.9C337.601 350.9 337.701 350.8 337.701 350.7C337.701 350.6 337.701 350.5 337.601 350.5C337.201 350.3 333.401 348.5 332.401 349.1C332.201 349.2 332.101 349.4 332.101 349.7C332.101 350.1 332.301 350.5 332.601 350.7C333.101 351.2 333.901 351.3 334.601 351.3ZM336.801 350.6C334.901 350.9 333.401 350.9 332.801 350.4C332.601 350.2 332.501 350 332.501 349.7C332.501 349.6 332.501 349.5 332.601 349.5C333.101 349.2 335.201 350 336.801 350.6Z" fill="#009342"/>
<path d="M337.4 351H337.5C337.6 351 337.6 350.9 337.6 350.8C337.6 350.6 336.9 346.8 334.8 347C334.2 347.1 334.1 347.4 334 347.6C333.9 348.6 336.2 350.5 337.4 351ZM335 347.4C336.3 347.4 336.9 349.5 337.1 350.4C335.9 349.7 334.4 348.2 334.5 347.6C334.5 347.6 334.5 347.4 334.9 347.4H335Z" fill="#009342"/>
<path d="M340.9 105.4L340 106.4L339.1 107.3C338.5 107.9 337.9 108.4 337.3 108.9C336.1 110 334.9 111 333.7 111.9C331.2 113.9 328.6 115.7 325.9 117.3C324.5 118.1 323.1 118.9 321.7 119.6C320.3 120.3 318.8 121 317.2 121.6C314.1 122.8 310.8 123.7 307.5 124.2L306.8 124.3C306.3 124.4 305.8 124.4 305.3 124.4C304.2 124.4 303.1 124.2 302 123.8C301 123.4 300 122.8 299.2 122C298.6 121.4 298 120.7 297.5 119.9C296.9 118.8 296.4 117.6 296.1 116.4C295.9 115.4 295.7 114.5 295.6 113.5C295.4 111.8 295.4 110.1 295.5 108.4C295.6 106.8 295.7 105.2 295.9 103.7C296.3 100.6 296.8 97.7 297.5 94.7C298.2 91.7 298.9 88.9 299.9 86L306.5 87.3C306.3 92.9 306 98.7 306.2 104.1C306.2 106.6 306.5 109.1 307 111.6C307.1 112.1 307.2 112.5 307.4 112.9C307.5 113.2 307.7 113.5 307.7 113.4C307.6 113.2 307.5 113.1 307.4 113C307.1 112.7 306.8 112.5 306.5 112.4C306.1 112.2 305.8 112.2 305.4 112.1C305.2 112.1 305.1 112.1 305 112.1H305.1L305.3 112C307.7 111.4 310 110.6 312.2 109.5C314.5 108.4 316.7 107.1 318.9 105.7C321.1 104.3 323.2 102.7 325.3 101.1C326.3 100.3 327.3 99.4 328.3 98.5L329.8 97.2L330.5 96.6L331.1 96L340.9 105.4Z" fill="#FF8B7B"/>
<path d="M346.201 101.9C345.901 92.5 338.101 89.2 328.401 95.6C324.101 98.3 320.001 101.3 316.101 104.5L322.401 124.6C322.401 124.6 334.401 120.8 341.301 113.3C346.001 108.2 346.401 105.1 346.201 101.9Z" fill="#263238"/>
<path opacity="0.2" d="M334.401 105.9C334.401 105.9 328.601 114.2 326.601 123C329.401 121.8 332.201 120.3 334.801 118.7L334.401 105.9Z" fill="black"/>
<path d="M306.3 90.4L309.7 82.8L300.2 80C300.2 80 298.6 83.6 299.5 89.9L306.3 90.4Z" fill="#FF8B7B"/>
<path d="M310.601 73.9L302.401 74.9L300.101 80L309.601 82.8L310.601 73.9Z" fill="#FF8B7B"/>
<path d="M334.5 170.3C334.5 170.3 328.4 221.8 327.7 249.3C327 277.9 332.6 335.6 332.6 335.6L348.7 335.3C348.7 335.3 350.6 273.5 353 245.2C355.5 214.3 361.9 169.8 361.9 169.8L334.5 170.3Z" fill="#009342"/>
<path opacity="0.6" d="M334.5 170.3C334.5 170.3 328.4 221.8 327.7 249.3C327 277.9 332.6 335.6 332.6 335.6L348.7 335.3C348.7 335.3 350.6 273.5 353 245.2C355.5 214.3 361.9 169.8 361.9 169.8L334.5 170.3Z" fill="white"/>
<path opacity="0.2" d="M353.7 184.8C346.5 200.7 348.4 236.1 352.5 251.3C352.6 249.1 352.8 247 353 245.1C354.7 224.8 358 198.5 360.1 182.9C358.1 180.1 355.9 179.9 353.7 184.8Z" fill="black"/>
<path d="M350.7 335.9L331.7 336.3L330.3 330H350.4L350.7 335.9Z" fill="#009342"/>
<path d="M387 350.6L378.1 350.7L375.7 330.1L384.6 330L387 350.6Z" fill="#FF8B7B"/>
<path d="M378.101 349.7L387.901 349.6C388.301 349.6 388.601 349.8 388.701 350.2L391.101 358.1C391.301 358.7 391.001 359.4 390.301 359.6C390.201 359.6 390.001 359.7 389.901 359.7C386.401 359.7 381.301 359.5 376.901 359.6C371.701 359.6 369.401 360 363.401 360C359.701 360 358.401 356.3 359.901 356C366.801 354.4 370.301 354.2 376.101 350.4C376.601 350 377.401 349.7 378.101 349.7Z" fill="#263238"/>
<path opacity="0.2" d="M375.7 330.1L376.9 340.7H385.9L384.6 330L375.7 330.1Z" fill="black"/>
<path d="M374.4 351.3C375.4 351.3 376.3 351.2 377.3 350.9C377.4 350.9 377.5 350.8 377.5 350.7C377.5 350.6 377.5 350.5 377.4 350.5C377 350.3 373.2 348.5 372.2 349.1C372 349.2 371.9 349.4 371.9 349.7C371.9 350.1 372.1 350.5 372.4 350.7C372.9 351.2 373.7 351.3 374.4 351.3ZM376.6 350.6C374.7 350.9 373.2 350.9 372.6 350.4C372.4 350.2 372.3 350 372.3 349.7C372.3 349.6 372.3 349.5 372.4 349.5C372.9 349.2 375 350 376.6 350.6Z" fill="#009342"/>
<path d="M377.2 351C377.3 351 377.4 350.9 377.4 350.8C377.4 350.6 376.7 346.8 374.6 347C374 347.1 373.9 347.4 373.8 347.6C373.7 348.6 376 350.5 377.2 351ZM374.8 347.4C376.1 347.4 376.7 349.5 376.9 350.4C375.7 349.7 374.1 348.2 374.2 347.6C374.2 347.6 374.2 347.4 374.6 347.4H374.8Z" fill="#009342"/>
<path d="M350.2 169.9C350.2 169.9 354.7 225.3 357.9 252.6C361.3 281 372.4 335.5 372.4 335.5L388.5 335.2C388.5 335.2 384.1 273.3 382.4 244.9C380.5 214 380 169.2 380 169.2L350.2 169.9Z" fill="#009342"/>
<path opacity="0.6" d="M350.2 169.9C350.2 169.9 354.7 225.3 357.9 252.6C361.3 281 372.4 335.5 372.4 335.5L388.5 335.2C388.5 335.2 384.1 273.3 382.4 244.9C380.5 214 380 169.2 380 169.2L350.2 169.9Z" fill="white"/>
<path d="M390.501 335.9L371.501 336.3L370.101 330H390.201L390.501 335.9Z" fill="#009342"/>
<path d="M333.4 93.1C333.4 93.1 326.8 117.6 334.5 170.2C348.9 169.9 373 169.3 380 169.2C380.2 161.9 374.8 125.9 381.1 91.3C376.5 90.5 371.9 90.1 367.3 90C360.5 89.8 353.8 89.9 347 90.4C342.4 91 337.8 91.9 333.4 93.1Z" fill="#263238"/>
<path opacity="0.2" d="M378.3 116L370.8 109.8C371.3 114.6 375.7 126.4 377.9 132.4C378 127.2 378 121.7 378.3 116Z" fill="black"/>
<path d="M351.701 107.3L343.601 123.4C343.201 124.3 343.501 125.4 344.401 125.8C344.901 126.1 345.501 126.1 346.001 125.8L351.301 122.9C351.901 122.6 352.601 122.6 353.201 123L358.401 126.8C359.201 127.4 360.301 127.2 360.801 126.4C361.101 125.9 361.201 125.3 361.001 124.8L354.901 107.6C354.601 106.7 353.601 106.2 352.701 106.5C352.301 106.6 351.901 106.9 351.701 107.3Z" fill="white"/>
<path d="M364.801 67.2001C363.701 73.8001 362.601 85.7001 367.301 90.0001C367.301 90.0001 365.901 95.9001 353.501 98.0001C345.201 95.3001 347.001 90.5001 347.001 90.5001C354.201 88.6001 353.901 83.2001 352.601 78.2001L364.801 67.2001Z" fill="#FF8B7B"/>
<path opacity="0.2" d="M359.801 71.6L352.601 78C352.901 79.2 353.201 80.4 353.301 81.6C356.101 81.1 359.801 78 360.101 75.1C360.201 74 360.101 72.8 359.801 71.6Z" fill="black"/>
<path d="M368.8 59.1C366.4 67.6 365.4 72.7 360.1 76.2C352.1 81.4 342.3 75.2 342.1 66.1C341.9 57.9 345.9 45.4 355.1 43.8C361.7 42.6 367.9 47 369.1 53.6C369.4 55.4 369.3 57.3 368.8 59.1Z" fill="#FF8B7B"/>
<path d="M363.7 64.3C362.6 61.6 361.8 52.6 366.4 50.4C371 48.2 375.9 53.6 374.7 56.1C372.8 60.1 366.3 70.6 363.7 64.3Z" fill="#263238"/>
<path d="M366.5 53.6C365.4 50.6 351.6 48.9 349.7 45.7C347.4 41.9 356.8 41.4 363.2 43.4C368.8 45.1 372.6 46.8 372 51C371.6 53.3 366.5 53.6 366.5 53.6Z" fill="#263238"/>
<path d="M369.4 50.5C369.4 50.5 372.4 51.3 374 49.1C373.5 51.3 371 53.5 369.4 50.5Z" fill="#263238"/>
<path d="M355.7 41.3C351.6 38.1 346 41.9 346.5 46C347 50.1 360.9 53.3 360.9 53.3C360.9 53.3 361.2 45.5 355.7 41.3Z" fill="#263238"/>
<path d="M346.5 46C347.1 48.9 349.3 51.2 353.6 52.9C351.1 51.1 349.2 48.5 348.2 45.6L346.5 46Z" fill="#263238"/>
<path d="M355.201 58.7C355.101 59.4 354.601 59.9 354.101 59.8C353.601 59.7 353.401 59 353.501 58.3C353.601 57.6 354.101 57.1 354.601 57.2C355.101 57.3 355.301 58 355.201 58.7Z" fill="#263238"/>
<path d="M347.201 56.9C347.001 57.6 346.601 58.1 346.101 58C345.601 57.9 345.401 57.2 345.501 56.6C345.601 56 346.101 55.4 346.601 55.5C347.101 55.6 347.401 56.2 347.201 56.9Z" fill="#263238"/>
<path d="M349.7 57.8C348.4 59.8 346.8 61.5 345 63.1C346 64.5 348.2 64.5 348.2 64.5L349.7 57.8Z" fill="#FF5652"/>
<path d="M349.9 66.9C351.8 67.4 353.8 66.9 355.3 65.6C355.4 65.5 355.4 65.4 355.3 65.3C355.2 65.2 355.1 65.2 355 65.3C353.6 66.5 351.8 66.9 350 66.5C349.9 66.5 349.8 66.5 349.7 66.7C349.7 66.7 349.7 66.8 349.9 66.9Z" fill="#263238"/>
<path d="M358.101 56.6C358.301 56.6 358.601 56.5 358.601 56.3C358.601 56.2 358.601 56.1 358.601 56C358.101 54.8 356.901 53.8 355.601 53.6C355.401 53.6 355.201 53.7 355.101 54C355.101 54.2 355.201 54.4 355.401 54.5C356.501 54.7 357.301 55.5 357.801 56.4C357.901 56.5 358.001 56.6 358.101 56.6Z" fill="#263238"/>
<path d="M344.3 53.4C344.5 53.4 344.6 53.4 344.7 53.2C345.3 52.3 346.4 51.8 347.4 51.8C347.6 51.8 347.8 51.7 347.9 51.4C348 51.1 347.8 51 347.5 50.9C346.1 50.9 344.8 51.5 344 52.6C343.9 52.8 343.9 53 344.1 53.2C344.2 53.4 344.3 53.4 344.3 53.4Z" fill="#263238"/>
<path d="M383.301 98.2001C385.101 101.4 386.601 104.5 388.201 107.6C389.801 110.7 391.201 114 392.601 117.2C394.001 120.4 395.301 123.8 396.401 127.2C397.601 130.6 398.601 134.1 399.401 137.6L400.001 140.3C400.301 141.6 400.401 142.9 400.301 144.2C400.201 146.6 399.701 149 398.701 151.3C397.001 155.1 394.601 158.5 391.601 161.3C388.901 163.9 386.001 166.2 382.901 168.2C381.401 169.2 379.801 170.1 378.301 171C376.801 171.9 375.201 172.7 373.401 173.5L370.101 167.7C371.301 166.7 372.601 165.7 373.901 164.6C375.201 163.5 376.401 162.4 377.501 161.3C379.801 159.2 382.001 156.8 383.901 154.4C385.601 152.3 387.001 149.9 387.901 147.3C388.201 146.3 388.301 145.3 388.301 144.3C388.301 143.9 388.201 143.5 388.101 143.1L387.401 140.9C385.401 134.7 383.001 128.6 380.201 122.7C378.801 119.7 377.401 116.7 375.901 113.7C374.401 110.7 372.901 107.7 371.401 104.8L383.301 98.2001Z" fill="#FF8B7B"/>
<path d="M381.4 91.4C389.7 93.2 395.5 115 395.5 115L380.6 128.5C375.9 123.2 372.1 117.1 369.6 110.5C365.7 99.6 372.5 89.4 381.4 91.4Z" fill="#263238"/>
<path d="M371.9 166.7L362.3 166.8L368.3 176.5C368.3 176.5 375.1 174.8 375.7 171.4L371.9 166.7Z" fill="#FF8B7B"/>
<path d="M356.3 172.5L361.6 180.3L368.2 176.4L362.3 166.8L356.3 172.5Z" fill="#FF8B7B"/>
<path d="M371.4 66.9C370.3 68.9 368.5 70.3 366.4 71C363.6 71.8 362.1 69.3 362.9 66.6C363.6 64.2 365.9 60.8 368.7 61.2C371.5 61.6 372.7 64.5 371.4 66.9Z" fill="#FF8B7B"/>
<path d="M286.455 232.32L275.783 233.094L275.856 234.091L286.528 233.317L286.455 232.32Z" fill="#009342"/>
<path d="M296.063 231.615L290.776 231.998L290.849 232.996L296.135 232.612L296.063 231.615Z" fill="#009342"/>
<path d="M342 114.3L165.4 127C157.8 127.6 152 134.2 152.5 141.9L158.5 225.1C159.1 232.8 165.7 238.5 173.4 238L183.4 237.3C184.9 237.2 186.2 238.3 186.3 239.8L187.4 255.2C187.5 256 188.2 256.7 189 256.6C189.4 256.6 189.8 256.4 190.1 256.1L206.8 236.7C207.5 235.9 208.5 235.4 209.6 235.3L350 225.3C357.7 224.7 363.4 218.1 362.9 210.4L356.9 127.2C356.3 119.5 349.7 113.8 342 114.3Z" fill="#009342"/>
<path d="M221.9 159.5L224.2 193L214.7 193.7L213.8 180.6L200.9 181.5L201.8 194.6L192.3 195.3L190 161.8L199.5 161.1L200.4 173.7L213.3 172.8L212.4 160.2L221.9 159.5Z" fill="white"/>
<path d="M235.9 190.9C233.6 189.9 231.7 188.4 230.3 186.5C228.9 184.5 228.1 182.3 227.9 179.7C227.7 177.1 228.2 174.8 229.3 172.7C230.4 170.6 232 168.9 234.2 167.6C236.3 166.3 238.8 165.6 241.6 165.4C244.4 165.2 247 165.6 249.3 166.6C251.6 167.6 253.5 169 254.8 171C256.2 172.9 257 175.2 257.1 177.8C257.3 180.4 256.8 182.7 255.7 184.9C254.6 187 253 188.7 250.8 190.1C248.6 191.4 246.2 192.2 243.4 192.3C240.8 192.3 238.2 191.9 235.9 190.9ZM246.8 183C247.7 181.8 248.2 180.3 248 178.3C247.9 176.4 247.3 174.9 246.2 173.9C245.1 172.9 243.8 172.4 242.2 172.5C240.6 172.6 239.3 173.2 238.4 174.4C237.5 175.6 237 177.1 237.2 179C237.3 180.9 238 182.4 239 183.5C240.1 184.5 241.4 185 243 184.9C244.6 184.8 245.9 184.2 246.8 183Z" fill="white"/>
<path d="M259.9 154.9L269 154.3L271.5 189.8L262.4 190.4L259.9 154.9Z" fill="white"/>
<path d="M296.7 164.5C299.1 166.3 300.4 169.2 300.7 173.3L301.7 187.7L293.2 188.3L293 184.9C291.9 187.5 289.4 189 285.6 189.2C283.6 189.3 281.8 189.1 280.3 188.5C278.8 187.9 277.6 187 276.8 185.9C276 184.8 275.5 183.4 275.4 181.9C275.2 179.4 276 177.5 277.8 176C279.6 174.5 282.4 173.6 286.4 173.4L291.6 173C291.2 170.3 289.3 169 285.8 169.3C284.6 169.4 283.3 169.7 282.1 170.2C280.9 170.7 279.8 171.3 279 172.1L275.5 166.1C276.9 165 278.6 164.2 280.6 163.5C282.6 162.8 284.7 162.4 286.7 162.3C290.9 161.9 294.3 162.7 296.7 164.5ZM290.4 182.3C291.2 181.7 291.7 180.9 292 179.9L291.8 177.6L287.9 177.9C285.2 178.1 284 179.1 284.1 180.8C284.2 181.6 284.5 182.2 285.1 182.7C285.7 183.2 286.6 183.3 287.6 183.2C288.6 183.1 289.7 182.9 290.4 182.3Z" fill="white"/>
<path d="M304 153.8L314.8 153L314.5 174.4L307.3 174.9L304 153.8ZM307.7 186.2C306.6 185.3 306 184.1 305.9 182.7C305.8 181.3 306.2 180 307.2 179.1C308.2 178.1 309.4 177.5 311 177.4C312.6 177.3 313.9 177.7 315 178.5C316.1 179.4 316.7 180.5 316.8 181.9C316.9 183.3 316.5 184.5 315.5 185.6C314.5 186.6 313.3 187.2 311.7 187.3C310.2 187.5 308.8 187.1 307.7 186.2Z" fill="white"/>
<path opacity="0.2" d="M165.4 127C157.8 127.6 152 134.2 152.5 141.9L158.5 225.1C159.1 232.8 165.7 238.5 173.4 238L174.9 237.9C179.9 237.5 184.1 233.8 185 228.9L205.1 124.1L165.4 127Z" fill="black"/>
<path d="M163 99.6C163 101.1 163 102.5 163.2 104C154.1 107 144.5 107.8 135.1 106.2C135.6 104.5 135.8 102.7 135.9 101C135.6 102.8 135 104.5 134.1 106.1C132.3 105.8 131.3 105.5 131.3 105.5C131.3 105.5 133.1 95.7 129.8 88.5C126.5 81.3 128.2 77.3 130.6 76.2C135.2 62.1 152.5 64.3 158.3 70C165.7 77.3 165.8 97.8 167.1 102.5C166 103 164.9 103.4 163.9 103.8C163.4 102.4 163.1 101 163 99.6Z" fill="#263238"/>
<path d="M170.1 121.6L171 124.5C171.3 125.5 171.7 126.5 172 127.4C172.7 129.4 173.4 131.4 174.1 133.3C174.8 135.2 175.6 137.2 176.4 139.2L177.6 142.2L177.9 142.9L178 143.1C177.9 143 177.7 142.9 177.6 142.8C177.4 142.7 177.3 142.8 177.4 142.8C177.6 142.8 177.9 142.8 178.1 142.7C178.9 142.5 179.6 142.1 180.3 141.7C182 140.7 183.6 139.6 185.2 138.4C186.8 137.1 188.4 135.8 190 134.4C191.6 133 193.1 131.6 194.6 130.1L197.7 132.7C196.4 134.5 195.1 136.2 193.7 137.9C192.3 139.6 190.8 141.2 189.2 142.8C187.6 144.5 185.8 146 183.9 147.3C182.8 148.1 181.7 148.7 180.4 149.2C179.6 149.5 178.8 149.7 178 149.8C176.9 149.9 175.7 149.8 174.7 149.4C173.6 148.9 172.6 148.1 171.9 147.1C171.8 146.9 171.6 146.6 171.5 146.4L171.2 145.9L170.8 145.2C170.3 144.2 169.8 143.2 169.4 142.3C168.5 140.3 167.6 138.3 166.8 136.3C166 134.3 165.2 132.2 164.4 130.2C164 129.2 163.7 128.1 163.3 127.1C162.9 126.1 162.6 125 162.3 123.8L170.1 121.6Z" fill="#FFC3BD"/>
<path d="M167.8 112.7C171.2 113.6 173.699 127.8 173.699 127.8L164.199 134.3C164.199 134.3 155.1 120 157.8 116.2C160.4 112.2 162.8 111.4 167.8 112.7Z" fill="#009342"/>
<path d="M167.8 112.7C171.2 113.6 173.699 127.8 173.699 127.8L164.199 134.3C164.199 134.3 155.1 120 157.8 116.2C160.4 112.2 162.8 111.4 167.8 112.7Z" fill="#009342"/>
<path opacity="0.4" d="M167.8 112.7C171.2 113.6 173.699 127.8 173.699 127.8L164.199 134.3C164.199 134.3 155.1 120 157.8 116.2C160.4 112.2 162.8 111.4 167.8 112.7Z" fill="white"/>
<path opacity="0.3" d="M167.5 115.9L170.1 130.2L164.8 133.8L167.5 115.9Z" fill="black"/>
<path d="M194.399 130.5L197.599 122.9L201.499 130.5C201.499 130.5 198.999 134.3 195.599 133.4L194.399 130.5Z" fill="#FFC3BD"/>
<path d="M201.1 122.1L206.1 124.1L201.5 130.5L197.6 122.9L201.1 122.1Z" fill="#FFC3BD"/>
<path d="M149.1 351.5H157.5L158.1 332.1H149.7L149.1 351.5Z" fill="#FFC3BD"/>
<path d="M93 326.5L100.7 329.8L110.8 313L103.1 309.7L93 326.5Z" fill="#FFC3BD"/>
<path d="M102.2 328.6L94.1998 323.7C93.8998 323.5 93.4998 323.6 93.2998 323.8L88.4998 329.6C87.9998 330.2 88.0998 331 88.6998 331.5C88.6998 331.5 88.7998 331.6 88.8998 331.6C91.6998 333.3 93.1998 333.9 96.6998 336.1C98.8998 337.4 101.9 339.6 104.9 341.4C107.9 343.2 109.9 340.4 108.8 339.4C104 334.8 104.1 332.6 103.2 329.8C102.9 329.3 102.6 328.9 102.2 328.6Z" fill="#263238"/>
<path d="M157.8 350.5H148.4C148.1 350.5 147.8 350.7 147.7 351.1L146.6 358.5C146.5 359.2 147 359.9 147.7 360C147.8 360 147.8 360 147.9 360C151.2 360 152.8 359.7 156.9 359.7C159.4 359.7 164.7 360 168.2 360C171.7 360 171.9 356.5 170.4 356.2C163.8 354.8 161.3 352.8 159.1 351C158.8 350.7 158.3 350.5 157.8 350.5Z" fill="#263238"/>
<path opacity="0.2" d="M158.099 332.1L157.799 342.1H149.399L149.699 332.1H158.099Z" fill="black"/>
<path opacity="0.2" d="M103.099 309.8L110.799 313L105.599 321.7L97.8994 318.4L103.099 309.8Z" fill="black"/>
<path d="M167.8 112.7C167.8 112.7 171.8 114.1 163.8 163.2H129.8C130.4 149.4 130.4 140.9 123.8 112.5C128.6 111.5 133.4 110.9 138.2 110.6C143.3 110.2 148.5 110.2 153.6 110.6C160.3 111.2 167.8 112.7 167.8 112.7Z" fill="#009342"/>
<path opacity="0.4" d="M167.8 112.7C167.8 112.7 171.8 114.1 163.8 163.2H129.8C130.4 149.4 130.4 140.9 123.8 112.5C128.6 111.5 133.4 110.9 138.2 110.6C143.3 110.2 148.5 110.2 153.6 110.6C160.3 111.2 167.8 112.7 167.8 112.7Z" fill="white"/>
<path d="M138.2 110.6C143.3 110.2 148.5 110.2 153.6 110.6C154.4 110.7 155.3 110.8 156.1 110.9C156.8 112 157 113.3 156.6 114.5C155.5 117.2 151.6 117.5 148.8 117.5C138.3 117.5 136.5 111.4 136.4 111.1L136.3 110.7L138.2 110.6Z" fill="white"/>
<path d="M139.8 93.2001C140.8 98.2001 141.7 107.3 138.3 110.6C138.3 110.6 139.7 115.6 148.9 115.6C159 115.6 153.8 110.6 153.8 110.6C148.3 109.3 148.4 105.2 149.4 101.3L139.8 93.2001Z" fill="#FFC3BD"/>
<path d="M140.8 89.7001C139.6 93.6001 141.3 102.9 143.7 106.5C138.9 103.7 137.2 95.3001 137.2 95.3001L140.8 89.7001Z" fill="#263238"/>
<path opacity="0.2" d="M143.6 96.5L149.2 101.3C149 102.2 148.8 103.1 148.7 104C146.6 103.7 143.7 101.4 143.5 99.2C143.4 98.3 143.4 97.4 143.6 96.5Z" fill="black"/>
<path d="M135.2 84.4C137.1 92.5 137.8 95.9 142.6 99.4C149.9 104.6 159.4 100.5 159.9 92C160.4 84.4 157.1 72.4 148.6 70.6C142.5 69.3 136.5 73.1 135.1 79.2C134.7 80.9 134.7 82.7 135.2 84.4Z" fill="#FFC3BD"/>
<path d="M163.799 163.2C163.799 163.2 170.399 227.6 169.799 253.1C169.199 279.6 159.499 340.1 159.499 340.1H148.199C148.199 340.1 149.999 281.1 148.999 255.1C147.899 226.7 138.899 163.2 138.899 163.2H163.799Z" fill="#009342"/>
<path opacity="0.4" d="M163.799 163.2C163.799 163.2 170.399 227.6 169.799 253.1C169.199 279.6 159.499 340.1 159.499 340.1H148.199C148.199 340.1 149.999 281.1 148.999 255.1C147.899 226.7 138.899 163.2 138.899 163.2H163.799Z" fill="black"/>
<path d="M147.3 340.5H160.5L161.5 336.3L146.6 335.8L147.3 340.5Z" fill="#009342"/>
<path opacity="0.2" d="M149.1 179.2C157.4 196 150.8 226.6 147.8 238C146.3 220.9 143.7 200 141.7 184.6C143.1 176 145.3 171.5 149.1 179.2Z" fill="black"/>
<path d="M154.8 163.2C154.8 163.2 147.1 230.2 141.3 251.7C134.4 277.2 108.2 320.7 108.2 320.7L97.7002 316.2C97.7002 316.2 113.9 266.8 119.2 253.4C130.4 224.7 120.8 181.9 129.8 163.2H154.8Z" fill="#009342"/>
<path opacity="0.4" d="M154.8 163.2C154.8 163.2 147.1 230.2 141.3 251.7C134.4 277.2 108.2 320.7 108.2 320.7L97.7002 316.2C97.7002 316.2 113.9 266.8 119.2 253.4C130.4 224.7 120.8 181.9 129.8 163.2H154.8Z" fill="black"/>
<path d="M96.2998 316.2L109.3 321.8L112.4 318.3L97.3998 311.1L96.2998 316.2Z" fill="#009342"/>
<path d="M147.999 84.5001C148.099 85.2001 148.599 85.6001 148.999 85.6001C149.399 85.6001 149.699 84.9001 149.599 84.3001C149.499 83.7001 148.999 83.2001 148.599 83.2001C148.199 83.2001 147.799 83.8001 147.999 84.5001Z" fill="#263238"/>
<path d="M155.499 83.1C155.599 83.8 156.099 84.2 156.499 84.2C156.899 84.2 157.199 83.5 157.099 82.9C156.999 82.3 156.499 81.8 156.099 81.8C155.699 81.8 155.299 82.5 155.499 83.1Z" fill="#263238"/>
<path d="M155.899 81.9L157.399 81.1C157.399 81.1 156.799 82.5 155.899 81.9Z" fill="#263238"/>
<path d="M153.7 84.6C154.6 86 155.6 87.3 156.8 88.4C156.2 89 155.4 89.3 154.5 89.3L153.7 84.6Z" fill="#ED847E"/>
<path d="M151.499 92.4C151.899 92.4 152.299 92.4 152.599 92.3C152.699 92.3 152.799 92.2 152.799 92.1C152.799 92 152.699 91.9 152.599 91.9C152.599 91.9 152.599 91.9 152.499 91.9C150.799 92.2 149.099 91.7 147.899 90.6C147.799 90.5 147.699 90.5 147.599 90.6C147.499 90.7 147.499 90.8 147.599 90.9C148.699 91.9 150.099 92.5 151.499 92.4Z" fill="#263238"/>
<path d="M138 79.6C138.2 81.7 138.6 83.8 139 85.9C139 85.9 144 79.6 144.8 76.2C144.6 77.5 144.2 78.8 143.7 80.1C143.7 80.1 150.4 78.6 151.1 74.2C151.1 76.2 150.9 78.2 150.4 80.1C150.4 80.1 156.8 77.6 156.2 73.3C155.6 69 145.8 67.4 141.2 68.8C136.6 70.2 132.2 74.9 133.5 81.3C134.8 87.7 137.4 90.1 137.4 90.1C137.4 90.1 135.6 83.7 138 79.6Z" fill="#263238"/>
<path d="M134.8 90.4C135.4 91.9 136.6 93.1 138.1 93.7C140.1 94.5 141.3 92.8 140.9 90.8C140.6 89 139.2 86.4 137.1 86.5C135.6 86.6 134.4 87.8 134.5 89.3C134.6 89.7 134.7 90.1 134.8 90.4Z" fill="#FFC3BD"/>
<path d="M139.199 76.6C138.199 80.6 140.299 89.8 142.899 93.3C137.899 90.8 135.899 82.4 135.899 82.4L139.199 76.6Z" fill="#263238"/>
<path d="M145.3 82.2C145.4 82.2 145.5 82.1 145.5 82C145.9 81.1 146.8 80.4 147.8 80.2C148 80.2 148.2 80 148.2 79.8C148.2 79.6 148 79.4 147.8 79.4C146.5 79.6 145.5 80.4 144.9 81.6C144.8 81.8 144.9 82 145.1 82.1C145.1 82.2 145.2 82.2 145.3 82.2Z" fill="#263238"/>
<path d="M158.2 79.1C158.3 79.1 158.4 79.1 158.5 79C158.7 78.8 158.7 78.6 158.5 78.4C157.6 77.5 156.4 77 155.1 77.1C154.9 77.1 154.7 77.3 154.8 77.6C154.8 77.8 155 77.9 155.3 77.9C156.3 77.8 157.3 78.2 158 78.9C158 79 158.1 79.1 158.2 79.1Z" fill="#263238"/>
<path d="M127.9 124.4C126.5 128.8 125.2 133.4 124.1 137.9C123 142.4 122.1 146.9 121.6 151.5L121.5 152.3C121.5 152.6 121.5 152.6 121.5 152.9C121.5 153.4 121.5 153.8 121.6 154.3C121.7 155.4 121.9 156.5 122.2 157.6C122.7 159.8 123.2 162.1 123.9 164.4C124.6 166.7 125.2 169 125.8 171.3L127.8 178.2L124.1 179.7C121.8 175.3 119.8 170.9 118 166.3C117.1 164 116.2 161.7 115.5 159.2C115.1 158 114.8 156.7 114.5 155.4C114.4 154.7 114.3 154 114.2 153.2C114.2 152.8 114.2 152.3 114.2 151.9V150.9C114.3 148.4 114.5 145.8 114.9 143.3C115.2 140.8 115.7 138.4 116.2 135.9C117.2 131 118.6 126.2 120.2 121.5L127.9 124.4Z" fill="#FFC3BD"/>
<path d="M123.8 112.5C120.4 113.5 116.3 125.3 116.3 125.3L129.5 134.7C129.5 134.7 134.3 124.9 132.9 120.5C131.4 115.9 127.7 111.3 123.8 112.5Z" fill="#009342"/>
<path opacity="0.4" d="M123.8 112.5C120.4 113.5 116.3 125.3 116.3 125.3L129.5 134.7C129.5 134.7 134.3 124.9 132.9 120.5C131.4 115.9 127.7 111.3 123.8 112.5Z" fill="white"/>
<path d="M105.6 331.8C105.9 331.7 106.2 331.4 106.3 331.1C106.4 330.9 106.4 330.6 106.3 330.4C105.7 329.5 102.7 329.6 102.3 329.6C102.2 329.6 102.2 329.6 102.1 329.7C102.1 329.8 102.1 329.8 102.1 329.9C102.9 330.7 104.4 332 105.4 331.8H105.6ZM102.8 330C104 330 105.6 330.2 106 330.6C106.1 330.7 106.1 330.8 106 330.9C105.9 331.1 105.7 331.3 105.4 331.4C104.8 331.6 103.8 331 102.8 330Z" fill="#009342"/>
<path d="M103.6 329.8C104.5 329.5 105.5 329 105.7 328.4C105.8 328.1 105.7 327.8 105.4 327.6C105.2 327.4 104.9 327.3 104.6 327.4C103.4 327.6 102.1 329.7 102.1 329.7C102.1 329.8 102.1 329.8 102.1 329.9C102.1 330 102.2 330 102.3 330C102.7 330 103.2 329.9 103.6 329.8ZM104.6 327.8C104.9 327.8 105.1 327.8 105.2 327.9C105.4 328.1 105.4 328.2 105.4 328.3C105.2 328.8 103.7 329.5 102.7 329.6C103.1 328.9 103.8 328.2 104.6 327.8Z" fill="#009342"/>
<path d="M160.9 351.9C161.6 352 162.3 351.8 162.9 351.4C163.2 351.1 163.3 350.8 163.3 350.4C163.3 350.2 163.2 350 163 349.9C162 349.3 158.6 351 158.3 351.2C158.2 351.2 158.1 351.4 158.2 351.5L158.3 351.6C159.1 351.8 160 351.9 160.9 351.9ZM162.4 350.2C162.5 350.2 162.7 350.2 162.8 350.3C162.9 350.3 162.9 350.4 162.9 350.5C162.9 350.7 162.9 351 162.7 351.1C162.2 351.6 160.8 351.6 159 351.3C160 350.8 161.2 350.4 162.4 350.2Z" fill="#009342"/>
<path d="M158.3 351.6C159.4 351.1 161.4 349.3 161.2 348.4C161.2 348.2 161 347.9 160.4 347.8C160 347.8 159.6 347.9 159.3 348.1C158.3 349 158.1 351.2 158 351.3C158 351.4 158 351.4 158.1 351.5C158.3 351.7 158.3 351.7 158.3 351.6ZM160.3 348.3H160.4C160.8 348.3 160.8 348.5 160.8 348.5C160.9 349.1 159.6 350.5 158.5 351.1C158.6 350.1 159 349.2 159.6 348.5C159.8 348.4 160.1 348.3 160.3 348.3Z" fill="#009342"/>
<path d="M129.3 161.2L128.4 164.2C128.3 164.4 128.6 164.7 129 164.7H164C164.3 164.7 164.6 164.6 164.6 164.4L164.9 161.4C164.9 161.2 164.6 161 164.3 161H129.9C129.7 160.9 129.4 161 129.3 161.2Z" fill="#263238"/>
<path d="M133.9 165.1H133C132.8 165.1 132.7 165 132.7 164.9L133.1 160.9C133.1 160.8 133.3 160.7 133.5 160.7H134.4C134.6 160.7 134.7 160.8 134.7 160.9L134.3 164.9C134.3 165 134.1 165.1 133.9 165.1Z" fill="#009342"/>
<path opacity="0.4" d="M133.9 165.1H133C132.8 165.1 132.7 165 132.7 164.9L133.1 160.9C133.1 160.8 133.3 160.7 133.5 160.7H134.4C134.6 160.7 134.7 160.8 134.7 160.9L134.3 164.9C134.3 165 134.1 165.1 133.9 165.1Z" fill="black"/>
<path d="M161.4 165.1H160.5C160.3 165.1 160.2 165 160.2 164.9L160.6 160.9C160.6 160.8 160.8 160.7 161 160.7H161.9C162.1 160.7 162.2 160.8 162.2 160.9L161.8 164.9C161.7 165 161.6 165.1 161.4 165.1Z" fill="#009342"/>
<path opacity="0.4" d="M161.4 165.1H160.5C160.3 165.1 160.2 165 160.2 164.9L160.6 160.9C160.6 160.8 160.8 160.7 161 160.7H161.9C162.1 160.7 162.2 160.8 162.2 160.9L161.8 164.9C161.7 165 161.6 165.1 161.4 165.1Z" fill="black"/>
<path d="M147.599 165.1H146.699C146.499 165.1 146.399 165 146.399 164.9L146.799 160.9C146.799 160.8 146.999 160.7 147.199 160.7H148.099C148.299 160.7 148.399 160.8 148.399 160.9L147.999 164.9C147.999 165 147.799 165.1 147.599 165.1Z" fill="#009342"/>
<path opacity="0.4" d="M147.599 165.1H146.699C146.499 165.1 146.399 165 146.399 164.9L146.799 160.9C146.799 160.8 146.999 160.7 147.199 160.7H148.099C148.299 160.7 148.399 160.8 148.399 160.9L147.999 164.9C147.999 165 147.799 165.1 147.599 165.1Z" fill="black"/>
<path d="M148.3 83.2L149.8 82.5C149.8 82.4 149.3 83.8 148.3 83.2Z" fill="#263238"/>
<path d="M127.5 177.1L134.7 182.6L126.4 184.4C126.4 184.4 122.9 180.4 124.1 177.1H127.5Z" fill="#FFC3BD"/>
<path d="M136.4 189.4L129.4 190.6L125.6 183.3L134.7 182.6L136.4 189.4Z" fill="#FFC3BD"/>
</g>
<defs>
<clipPath id="clip0_174_200">
<rect width="500" height="372.6" fill="white"/>
</clipPath>
</defs>
</svg>
