<svg width="400" height="40" viewBox="0 0 400 40" fill="none" xmlns="http://www.w3.org/2000/svg">
<path d="M370.657 39.661H365.392L365.392 0.343994H370.657L370.657 39.661Z" fill="white"/>
<path d="M400 4.66016H391.129V39.661H385.892V4.66016H376.367V0.343994H400V4.66016Z" fill="white"/>
<path d="M24.9217 21.8106C25.4954 20.0135 26.0692 18.2233 26.6289 16.4262C27.5734 13.4031 28.4899 10.366 29.4414 7.34295C29.7073 6.50011 30.0221 5.65726 30.4069 4.85621C32.7857 -0.0476087 37.9841 -0.270509 41.1045 1.17835C43.2944 2.19533 44.5118 4.05516 44.9596 6.34686C45.5892 9.56499 46.093 12.804 46.6317 16.0431C47.4853 21.1976 48.3248 26.3592 49.1574 31.5138C49.2624 32.1685 49.3463 32.8372 49.3463 33.499C49.3603 36.7171 47.5412 38.9322 44.4278 39.5034C41.3424 40.0746 38.4669 38.57 37.5433 35.5538C36.9276 33.5547 36.7457 31.4162 36.4449 29.3335C36.144 27.2995 35.9411 25.2516 35.6823 23.2107C35.6543 23.0087 35.5493 22.8137 35.3394 22.2285C35.0246 22.939 34.8007 23.3361 34.6748 23.754C33.6393 27.0975 32.6248 30.455 31.6033 33.8055C31.4914 34.1746 31.3864 34.5508 31.2535 34.92C30.1271 38.0267 27.8952 39.6148 24.6699 39.6079C21.4095 39.6079 19.0657 37.957 18.0232 34.7528C16.9108 31.3118 15.9173 27.8359 14.8608 24.3809C14.658 23.7122 14.4061 23.0644 14.1752 22.4097C14.0563 22.4236 13.9303 22.4375 13.8114 22.4514C13.5735 24.2416 13.3216 26.0318 13.0907 27.822C12.8389 29.7515 12.671 31.6949 12.3561 33.6104C11.9153 36.2852 10.7749 38.5073 7.92037 39.3362C3.49162 40.6179 -0.370412 37.5878 0.028385 33.0323C0.266264 30.3226 0.790997 27.6409 1.23177 24.9521C2.18329 19.1358 3.16279 13.3264 4.1353 7.51709C4.19827 7.13398 4.25424 6.75087 4.35219 6.37472C5.26173 2.82224 7.43762 0.823098 10.7749 0.460884C14.3991 0.0708077 17.3236 1.59629 18.8768 4.84925C19.5415 6.24934 19.9962 7.75392 20.465 9.23064C21.6264 12.8876 22.7388 16.5585 23.8863 20.2224C24.0612 20.7867 24.2991 21.33 24.5159 21.8803C24.6559 21.8594 24.7888 21.8315 24.9287 21.8106H24.9217Z" fill="white"/>
<path d="M233.15 20.0199C232.947 9.41117 241.399 0.0354006 253.643 0.0493319C265.145 0.0632632 274.017 8.76336 274.024 20.0129C274.024 31.3321 265.096 40.0322 253.482 39.9834C241.343 39.9277 232.954 30.5728 233.157 20.0129L233.15 20.0199ZM261.458 19.992C261.444 15.3529 258.002 11.8909 253.44 11.9327C248.99 11.9745 245.639 15.4713 245.66 20.0547C245.681 24.7217 249.109 28.1627 253.671 28.1139C258.128 28.0652 261.465 24.5754 261.451 19.992H261.458Z" fill="white"/>
<path d="M289.171 22.8612C289.136 23.3905 289.08 23.913 289.08 24.4424C289.073 27.4446 289.108 30.4537 289.066 33.4559C289.003 37.7677 285.526 40.4146 281.328 39.3837C278.767 38.7568 277.081 36.7925 276.878 34.1803C276.85 33.7903 276.857 33.4002 276.857 33.0101C276.857 24.3866 276.857 15.7562 276.857 7.13272C276.857 6.51974 276.85 5.8998 276.969 5.30772C278.067 -0.118525 284.329 -0.606121 287.163 1.72041C288.219 2.59111 289.143 3.69169 289.926 4.82012C292.487 8.53281 294.957 12.3152 297.468 16.0627C297.762 16.5015 298.098 16.9055 298.413 17.3304C298.525 17.2956 298.637 17.2608 298.742 17.2329C298.777 16.6478 298.847 16.0557 298.847 15.4706C298.861 12.5241 298.889 9.5707 298.847 6.62423C298.77 1.67165 303.255 -0.362323 306.858 0.717353C309.104 1.38606 310.671 3.17623 310.944 5.50972C311 6.00428 311.007 6.51278 311.007 7.00734C311.007 15.6865 311.014 24.3727 311 33.0519C311 33.8251 310.958 34.6261 310.741 35.3575C309.551 39.4324 304.255 41.0345 300.743 38.3319C299.658 37.496 298.749 36.3745 297.972 35.2461C295.474 31.6239 293.075 27.9322 290.633 24.2682C290.297 23.7667 289.933 23.2791 289.583 22.7845C289.451 22.8124 289.318 22.8403 289.178 22.8681L289.171 22.8612Z" fill="white"/>
<path d="M196.586 19.964C196.586 15.6801 196.579 11.3893 196.586 7.10539C196.6 3.17676 198.741 0.954716 202.673 0.912922C206.696 0.871128 210.726 0.780575 214.735 1.40748C222.718 2.65434 228.966 8.54031 230.337 16.1886C231.856 24.617 228.301 32.53 221.263 36.4377C218.471 37.9841 215.435 38.7503 212.293 38.9454C209.061 39.1474 205.808 39.1892 202.561 39.1404C198.713 39.0847 196.607 36.8487 196.593 33.0037C196.579 28.6641 196.593 24.3175 196.593 19.9779L196.586 19.964ZM208.893 27.2431C212.734 27.863 215.463 26.8043 216.932 24.2409C218.555 21.4059 218.31 17.4076 216.351 14.9626C214.693 12.8938 211.678 12.051 208.893 12.9217V27.2431Z" fill="white"/>
<path d="M97.5025 27.3042C97.4745 27.8406 97.4325 28.3769 97.4255 28.9133C97.4115 30.6965 97.4745 32.4797 97.3905 34.2559C97.2436 37.2512 94.8858 39.4523 91.7724 39.6056C88.4141 39.7658 85.8394 37.8084 85.3986 34.7296C85.3007 34.0191 85.2727 33.2877 85.2727 32.5633C85.2657 24.3786 85.3566 16.194 85.2307 8.00937C85.1537 3.07769 87.8894 0.695434 92.3951 0.876541C96.0822 1.02282 99.7833 0.946197 103.47 1.07158C106.024 1.16213 108.424 1.89353 110.6 3.26576C114.273 5.58532 116.162 8.97759 116.491 13.2336C116.834 17.6916 115.588 21.5994 112.153 24.6642C112.034 24.7687 111.957 24.9289 111.754 25.2076C112.146 25.6812 112.545 26.1967 112.972 26.6843C113.986 27.8684 115.106 28.9829 116.022 30.2368C117.834 32.7235 117.533 36.0879 115.455 38.0174C113.23 40.0792 109.697 40.1698 107.304 38.1915C106.71 37.697 106.178 37.1049 105.681 36.5058C103.477 33.845 101.295 31.1562 99.0977 28.4884C98.7199 28.0287 98.3071 27.5898 97.9153 27.144C97.7823 27.1997 97.6424 27.2555 97.5095 27.3112L97.5025 27.3042ZM97.5375 18.0469C98.9577 18.0469 100.182 18.1514 101.386 18.026C103.086 17.8518 104.205 16.5284 104.268 14.8705C104.324 13.3242 103.393 11.938 101.931 11.6245C100.518 11.325 99.0697 11.2832 97.5375 11.6733V18.0538V18.0469Z" fill="white"/>
<path d="M119.009 19.9079C119.037 10.7759 124.397 3.28786 132.806 0.933467C139.341 -0.891533 145.568 -0.118346 151.151 3.94263C153.215 5.44024 154.866 7.34187 155.279 10.0027C155.664 12.4616 154.978 14.5652 152.858 15.9862C150.71 17.4212 148.416 17.4142 146.212 16.1047C145.26 15.5404 144.47 14.7185 143.588 14.0359C141.426 12.3641 139.005 12.0298 136.452 12.8378C132.827 13.9871 130.847 17.867 131.75 21.8722C132.946 27.1661 138.921 29.3812 143.35 26.1561C144.12 25.5988 144.819 24.951 145.561 24.359C147.324 22.9519 149.332 22.6802 151.417 23.342C154.852 24.4356 156.349 28.1622 154.81 31.6729C153.817 33.9437 152.089 35.6015 150.025 36.9111C146.107 39.3908 141.762 40.3033 137.193 39.9133C129.77 39.2794 124.229 35.7199 120.926 28.9702C119.646 26.3581 119.002 23.14 119.009 19.9009V19.9079Z" fill="white"/>
<path d="M52.8513 19.9904C52.8513 15.7066 52.8513 11.4157 52.8513 7.13185C52.8513 3.18233 54.9433 0.946352 58.8823 0.911524C64.7033 0.848833 70.5173 0.911524 76.3384 0.890627C80.8581 0.876695 82.5652 4.93767 81.6347 7.96076C80.949 10.1828 79.1859 11.6038 76.8141 11.6317C73.6797 11.6735 70.5453 11.6456 67.4109 11.6456C66.9631 11.6456 66.5154 11.6526 66.0676 11.6735C65.5429 11.6944 65.242 11.973 65.207 12.5024C65.186 12.781 65.1791 13.0596 65.1791 13.3382C65.1791 14.9334 65.249 15.0239 66.8932 15.0379C69.5798 15.0518 72.2664 15.0588 74.9531 15.0379C77.003 15.0239 78.5563 15.8668 79.4028 17.7196C80.3054 19.6979 80.1165 21.6483 78.7312 23.3758C77.8076 24.532 76.5273 25.0196 75.037 25.0127C72.3504 24.9987 69.6638 24.9848 66.9771 25.0336C66.4174 25.0405 65.4729 25.2077 65.3819 25.5003C65.1511 26.2526 65.249 27.1302 65.354 27.9383C65.3819 28.1263 65.9696 28.3492 66.3125 28.3701C67.257 28.4328 68.2155 28.398 69.167 28.398C71.8537 28.398 74.5403 28.3701 77.2269 28.4119C79.7876 28.4537 81.7256 30.1115 82.1944 32.5495C82.7191 35.2731 81.4878 37.7947 79.067 38.7072C78.2554 39.0136 77.3249 39.1251 76.4433 39.1321C70.6783 39.1669 64.9202 39.153 59.1551 39.146C57.7978 39.146 56.4755 38.9649 55.3071 38.1847C53.6419 37.0702 52.8583 35.4821 52.8513 33.5108C52.8373 29.004 52.8513 24.4903 52.8513 19.9835V19.9904Z" fill="white"/>
<path d="M182.013 34.0691H168.957C168.706 34.717 168.461 35.3857 168.181 36.0335C167.194 38.3182 164.843 39.7253 162.248 39.5999C159.75 39.4815 157.602 37.8933 156.84 35.5389C156.322 33.9298 156.553 32.3486 157.189 30.8162C158.274 28.1971 159.358 25.578 160.457 22.9589C162.647 17.7277 164.808 12.4826 167.068 7.27925C167.705 5.81647 168.489 4.35368 169.482 3.11379C172.386 -0.522277 178.473 -0.578002 181.404 3.04414C182.537 4.4512 183.405 6.12992 184.126 7.80168C187.05 14.5932 189.87 21.4265 192.724 28.2528C193.214 29.43 193.753 30.6003 194.131 31.8192C195.11 34.9399 193.473 38.1928 190.457 39.2586C187.33 40.3661 184 38.8824 182.726 35.8106C182.496 35.2533 182.265 34.6891 182.013 34.0691ZM175.73 16.1883C175.583 16.1744 175.429 16.1605 175.282 16.1396C174.261 18.7865 173.267 21.4404 172.505 24.3172H178.591C177.591 21.4753 176.66 18.8283 175.73 16.1883Z" fill="white"/>
<path d="M338.529 34.0691H325.473C325.221 34.717 324.977 35.3857 324.697 36.0335C323.71 38.3182 321.359 39.7253 318.764 39.5999C316.266 39.4815 314.118 37.8933 313.355 35.5389C312.838 33.9298 313.069 32.3486 313.705 30.8162C314.79 28.1971 315.874 25.578 316.973 22.9589C319.162 17.7277 321.324 12.4826 323.584 7.27925C324.221 5.81647 325.004 4.35368 325.998 3.11379C328.902 -0.522277 334.988 -0.578002 337.92 3.04414C339.053 4.4512 339.921 6.12992 340.642 7.80168C343.566 14.5932 346.386 21.4265 349.24 28.2528C349.73 29.43 350.269 30.6003 350.646 31.8192C351.626 34.9399 349.989 38.1928 346.973 39.2586C343.846 40.3661 340.516 38.8824 339.242 35.8106C339.011 35.2533 338.78 34.6891 338.529 34.0691ZM332.246 16.1883C332.099 16.1744 331.945 16.1605 331.798 16.1396C330.777 18.7865 329.783 21.4404 329.02 24.3172H335.107C334.107 21.4753 333.176 18.8283 332.246 16.1883Z" fill="white"/>
</svg>
